<svg width="498" height="498" viewBox="0 0 498 498" fill="none" xmlns="http://www.w3.org/2000/svg">
<circle cx="249" cy="249" r="226.5" stroke="white" stroke-width="45"/>
<path d="M89 325L82.5 260.25L29.5 173.5H91L113.5 225.25L135.75 173.5H197.25L144.25 260.25L137.75 325H89ZM408.082 173.5H453.332C453.332 193.167 451.332 211.833 447.332 229.5C443.499 247.167 438.749 261.583 433.082 272.75C427.582 283.917 421.999 293.667 416.332 302C410.665 310.167 405.832 316 401.832 319.5L396.082 325H339.332L320.582 264.25C318.249 272.083 314.582 281.083 309.582 291.25C304.749 301.25 300.415 309.333 296.582 315.5L290.832 325H236.582L189.832 173.5H269.082L283.332 272C285.832 269.5 288.915 265 292.582 258.5C296.415 251.833 299.582 245.083 302.082 238.25C304.749 231.25 307.165 222 309.332 210.5C311.665 198.833 312.915 186.5 313.082 173.5H366.832L381.082 272C392.749 257.333 400.832 236.833 405.332 210.5C407.165 198.833 408.082 186.5 408.082 173.5Z" fill="white"/>
<path d="M54 115H431" stroke="white" stroke-width="16"/>
<line x1="65" y1="384" x2="433" y2="384" stroke="white" stroke-width="16"/>
</svg>
